{"title":"WWE.Friday.Night.Smackdown.10.06.11.Xvid-spyke1998","uid":6459691,"size":214430828,"categoryP":"video","categoryS":"tv_shows","magnet":"?xt=urn:btih:946c408fd6c88c4e37d80bcfccebcae6d55c6403&amp;dn=WWE.Friday.Night.Smackdown.10.06.11.Xvid-spyke1998&amp;tr=udp%3A%2F%2Ftracker.openbittorrent.com%3A80&amp;tr=udp%3A%2F%2Fopen.demonii.com%3A1337&amp;tr=udp%3A%2F%2Ftracker.coppersurfer.tk%3A6969&amp;tr=udp%3A%2F%2Fexodus.desync.com%3A6969","seeders":0,"leechers":1,"uploader":"spyke1998","files":1,"time":1307715696,"description":"   Video #0\n      ID : 0\n      Format : MPEG-4 Visual\n      Format profile : AdvancedSimple@L5\n      Format settings, BVOP : Yes\n      Format settings, QPel : No\n      Format settings, GMC : No warppoints\n      Format settings, Matrix : Default (H.263)\n      Codec ID : XVID\n      Codec ID/Hint : XviD\n      Duration : 45mn 59s\n      Bit rate : 512 Kbps\n      Width : 512 pixels\n      Height : 288 pixels\n      Display aspect ratio : 16:9\n      Frame rate : 29.970 fps\n      Resolution : 24 bits\n      Colorimetry : 4:2:0\n      Scan type : Progressive\n      Bits/(Pixel*Frame) : 0.116\n      Stream size : 168 MiB (82%)\n      Writing library : XviD 1.2.1 (UTC 2008-12-04)\n   Audio #1\n      ID : 1\n      Format : MPEG Audio\n      Format version : Version 1\n      Format profile : Layer 3\n      Codec ID : 55\n      Codec ID/Hint : MP3\n      Duration : 45mn 59s\n      Bit rate mode : Constant\n      Bit rate : 96.0 Kbps\n      Channel(s) : 2 channels\n      Sampling rate : 48.0 KHz\n      Resolution : 16 bits\n      Video delay : 33ms\n      Stream size : 31.6 MiB (15%)\n      Alignment : Aligned on interleaves\n      Interleave, duration : 24 ms (0.72 video frame)\n      Interleave, preload duration : 504 ms","torrent":{"xt":"urn:btih:946c408fd6c88c4e37d80bcfccebcae6d55c6403","amp;dn":"WWE.Friday.Night.Smackdown.10.06.11.Xvid-spyke1998","amp;tr":["udp%3A%2F%2Ftracker.openbittorrent.com%3A80","udp%3A%2F%2Fopen.demonii.com%3A1337","udp%3A%2F%2Ftracker.coppersurfer.tk%3A6969","udp%3A%2F%2Fexodus.desync.com%3A6969"],"infoHash":"946c408fd6c88c4e37d80bcfccebcae6d55c6403","infoHashBuffer":{"type":"Buffer","data":[148,108,64,143,214,200,140,78,55,216,11,207,204,235,202,230,213,92,100,3]},"announce":[],"urlList":[]}}